<?xml version="1.0" standalone="no"?>
<!DOCTYPE svg PUBLIC "-//W3C//DTD SVG 20010904//EN"
 "http://www.w3.org/TR/2001/REC-SVG-20010904/DTD/svg10.dtd">
<svg version="1.0" xmlns="http://www.w3.org/2000/svg"
 width="1000.000000pt" height="1000.000000pt" viewBox="0 0 1000.000000 1000.000000"
 preserveAspectRatio="xMidYMid meet">
<metadata>
Created by potrace 1.14, written by Peter Selinger 2001-2017
</metadata>
<g transform="translate(0.000000,1000.000000) scale(0.100000,-0.100000)"
fill="#000000" stroke="none">
<path d="M410 4990 l0 -4600 4600 0 4600 0 0 4600 0 4600 -4600 0 -4600 0 0
-4600z m2090 3950 l0 -450 -450 0 -450 0 0 450 0 450 450 0 450 0 0 -450z
m1500 0 l0 -450 -450 0 -450 0 0 450 0 450 450 0 450 0 0 -450z m1500 0 l0
-450 -450 0 -450 0 0 450 0 450 450 0 450 0 0 -450z m1500 0 l0 -450 -450 0
-450 0 0 450 0 450 450 0 450 0 0 -450z m1500 0 l0 -450 -450 0 -450 0 0 450
0 450 450 0 450 0 0 -450z m-7000 -270 l0 -280 550 0 550 0 0 280 0 280 200 0
200 0 0 -280 0 -280 550 0 550 0 0 280 0 280 200 0 200 0 0 -280 0 -280 550 0
550 0 0 280 0 280 200 0 200 0 0 -280 0 -280 550 0 550 0 0 280 0 280 200 0
200 0 0 -280 0 -280 550 0 550 0 0 280 0 280 175 0 175 0 0 -565 0 -565 -265
0 -265 0 0 -550 0 -550 265 0 265 0 0 -200 0 -200 -265 0 -265 0 0 -550 0
-550 265 0 265 0 0 -200 0 -200 -265 0 -265 0 0 -550 0 -550 265 0 265 0 0
-225 0 -225 -265 0 -265 0 0 -550 0 -550 265 0 265 0 0 -560 0 -560 -175 0
-175 0 0 270 0 270 -550 0 -550 0 0 -270 0 -270 -200 0 -200 0 0 270 0 270
-550 0 -550 0 0 -270 0 -270 -200 0 -200 0 0 270 0 270 -550 0 -550 0 0 -270
0 -270 -200 0 -200 0 0 270 0 270 -550 0 -550 0 0 -270 0 -270 -200 0 -200 0
0 270 0 270 -550 0 -550 0 0 -270 0 -270 -225 0 -225 0 0 560 0 560 275 0 275
0 0 550 0 550 -275 0 -275 0 0 225 0 225 275 0 275 0 0 550 0 550 -275 0 -275
0 0 200 0 200 275 0 275 0 0 550 0 550 -275 0 -275 0 0 200 0 200 275 0 275 0
0 550 0 550 -275 0 -275 0 0 565 0 565 225 0 225 0 0 -280z m0 -1400 l0 -450
-450 0 -450 0 0 450 0 450 450 0 450 0 0 -450z m7920 0 l0 -450 -450 0 -450 0
0 450 0 450 450 0 450 0 0 -450z m-7920 -1500 l0 -450 -450 0 -450 0 0 450 0
450 450 0 450 0 0 -450z m7920 0 l0 -450 -450 0 -450 0 0 450 0 450 450 0 450
0 0 -450z m-7920 -1500 l0 -450 -450 0 -450 0 0 450 0 450 450 0 450 0 0 -450z
m7920 0 l0 -450 -450 0 -450 0 0 450 0 450 450 0 450 0 0 -450z m-7920 -1550
l0 -450 -450 0 -450 0 0 450 0 450 450 0 450 0 0 -450z m7920 0 l0 -450 -450
0 -450 0 0 450 0 450 450 0 450 0 0 -450z m-6920 -1680 l0 -450 -450 0 -450 0
0 450 0 450 450 0 450 0 0 -450z m1500 0 l0 -450 -450 0 -450 0 0 450 0 450
450 0 450 0 0 -450z m1500 0 l0 -450 -450 0 -450 0 0 450 0 450 450 0 450 0 0
-450z m1500 0 l0 -450 -450 0 -450 0 0 450 0 450 450 0 450 0 0 -450z m1500 0
l0 -450 -450 0 -450 0 0 450 0 450 450 0 450 0 0 -450z"/>
<path d="M2940 6657 l170 -334 0 -191 0 -192 100 0 100 0 0 192 0 191 170 334
171 334 -112 -3 -111 -3 -101 -212 c-55 -117 -103 -213 -107 -213 -3 0 -51 96
-106 213 l-100 212 -122 3 -123 3 171 -334z"/>
<path d="M3740 6900 l0 -90 135 0 135 0 0 -345 0 -345 -135 0 -135 0 0 -90 0
-90 370 0 370 0 0 90 0 90 -135 0 -135 0 0 345 0 345 135 0 135 0 0 90 0 90
-370 0 -370 0 0 -90z"/>
<path d="M4640 6465 l0 -525 100 0 100 0 0 220 0 220 170 0 170 0 0 -220 0
-220 100 0 100 0 0 525 0 525 -100 0 -100 0 0 -215 0 -215 -170 0 -170 0 0
215 0 215 -100 0 -100 0 0 -525z"/>
<path d="M5805 6978 c-3 -7 -77 -237 -165 -510 -88 -274 -163 -505 -166 -513
-5 -13 9 -15 97 -15 l104 0 35 115 35 115 160 -2 160 -3 34 -112 35 -113 108
0 c59 0 108 1 108 3 0 1 -76 236 -168 522 l-168 520 -102 3 c-76 2 -104 -1
-107 -10z m160 -458 c26 -85 50 -161 52 -167 4 -10 -21 -13 -106 -13 -74 0
-111 4 -111 11 0 9 78 276 96 328 9 27 22 -3 69 -159z"/>
<path d="M6450 6465 l0 -525 96 0 96 0 -3 310 c-3 209 -1 306 6 296 6 -7 87
-147 180 -309 l170 -296 88 -1 87 0 0 525 0 525 -96 0 -96 0 4 -320 4 -320
-33 58 c-18 31 -99 175 -180 319 l-148 263 -87 0 -88 0 0 -525z"/>
<path d="M6803 5195 c-175 -38 -312 -173 -359 -356 -22 -84 -23 -262 0 -347
38 -147 129 -268 241 -322 135 -64 314 -63 445 2 l65 33 3 243 2 242 -175 0
-175 0 0 -70 0 -70 95 0 95 0 0 -111 0 -110 -35 -15 c-78 -32 -182 -12 -251
49 -76 67 -114 166 -114 299 0 231 89 354 266 366 106 7 114 0 114 -98 l0 -80
80 0 80 0 0 154 0 154 -38 15 c-93 37 -228 46 -339 22z"/>
<path d="M2860 5100 l0 -90 234 -2 234 -3 -244 -343 -244 -342 0 -90 0 -90
370 0 370 0 0 90 0 90 -244 2 -245 3 239 340 239 340 1 93 0 92 -355 0 -355 0
0 -90z"/>
<path d="M3740 4665 l0 -525 100 0 100 0 0 220 0 220 170 0 170 0 0 -220 0
-220 100 0 100 0 0 525 0 525 -100 0 -100 0 0 -215 0 -215 -170 0 -170 0 0
215 0 215 -100 0 -100 0 0 -525z"/>
<path d="M4905 5178 c-3 -7 -77 -237 -165 -510 -88 -274 -163 -505 -166 -513
-5 -13 9 -15 97 -15 l104 0 35 115 35 115 160 -2 160 -3 34 -112 35 -113 108
0 c59 0 108 1 108 3 0 1 -76 236 -168 522 l-168 520 -102 3 c-76 2 -104 -1
-107 -10z m160 -458 c26 -85 50 -161 52 -167 4 -10 -21 -13 -106 -13 -74 0
-111 4 -111 11 0 9 78 276 96 328 9 27 22 -3 69 -159z"/>
<path d="M5550 4665 l0 -525 96 0 96 0 -3 310 c-3 209 -1 306 6 296 6 -7 87
-147 180 -309 l170 -296 88 -1 87 0 0 525 0 525 -96 0 -96 0 4 -320 4 -320
-33 58 c-18 31 -99 175 -180 319 l-148 263 -87 0 -88 0 0 -525z"/>
</g>
</svg>
